<svg id="Capa_1" data-name="Capa 1" xmlns="http://www.w3.org/2000/svg" viewBox="0 0 808.51 201.2"><defs><style>.cls-1{fill:#33e0d0;}</style></defs><title>logoBarco_Home</title><path class="cls-1" d="M111.68,142.15a53.4,53.4,0,0,1-53.43,53.42H4.81V9.37H58.25A53.44,53.44,0,0,1,96,100.59c-.64.65-1.31,1.27-2,1.9a53.26,53.26,0,0,1,17.63,39.66"/><path class="cls-1" d="M364.86,195.57V116.24h-49V9.37h53.43a53.44,53.44,0,0,1,19.45,103.21l83,83Z"/><polygon class="cls-1" points="162.05 195.58 317.93 195.58 162.05 9.37 162.05 195.58"/><path class="cls-1" d="M762,135.82H714.17l24.73-29.95q3.65-4.49,6.12-7.75a60.07,60.07,0,0,0,3.76-5.5,15.46,15.46,0,0,0,2.63-7.79,11.12,11.12,0,0,0-3.51-8.36,12.07,12.07,0,0,0-8.68-3.37q-10.79,0-12.36,12.79H716.15q2.58-22.53,22.75-22.52a23,23,0,0,1,16.34,6.18,20.08,20.08,0,0,1,6.64,15.32,23.27,23.27,0,0,1-3.09,11.4,55.48,55.48,0,0,1-4.59,6.9q-3,4-7.64,9.44l-11.07,13.1H762Zm-62.16-8Q692.75,137,682.7,137t-17.26-9.18q-8-10.16-7.94-28.06,0-17,7.94-27.18,7.09-9.18,17.21-9.18t17.21,9.18q7.93,10.15,7.94,27.64t-7.94,27.6m9.9-120.72a93.1,93.1,0,1,0,93.1,93.1,93.1,93.1,0,0,0-93.1-93.1"/><path class="cls-1" d="M682.65,73.1q-6.27,0-10.43,7.66t-4.15,19q0,11.85,4.1,19.7t10.48,7.71q6.32,0,10.47-7.71t4.16-19.33q0-11.69-4.16-19.39T682.65,73.1"/><path class="cls-1" d="M575.24,11.42V197.63a93.11,93.11,0,0,1,0-186.21"/></svg>